<svg xmlns="http://www.w3.org/2000/svg" width="80" height="80" viewBox="0 0 80 80"><g><g><g><path fill="#c7b64c" d="M51.798 42.797l-.898.438c-4.707 2.295-5.113 9.383-.698 12.216 1.032.662 1.927.962 3.371 1.132 2.341.276 3.49 1.9 2.454 3.471-1.106 1.678-4.067 1.098-4.072-.797-.001-.349-.015-.35-2.441-.35h-2.44l.079.988c.165 2.06 1.789 4.365 3.747 5.32l.898.438v4.956h4.68v-4.956l.898-.438c4.182-2.039 5.11-7.973 1.768-11.315-1.184-1.183-2.556-1.826-4.33-2.027-2.452-.279-3.625-1.87-2.564-3.478 1.13-1.713 4.073-1.114 4.073.829 0 .309.084.32 2.44.32h2.44l-.08-1.006c-.168-2.083-1.841-4.444-3.779-5.33l-.865-.397v-4.97h-4.681zM8.496 39.022c5.184 2.478 10.044 3.42 17.654 3.421h5.015l-.459.91c-.897 1.778-2.144 6.12-2.158 7.517-.01.882-.041.891-2.906.877-9.578-.048-18.33-3.307-20.446-7.616-.439-.894-.446-.952-.5-4.142l-.054-3.234 1.069.723c.588.398 1.841 1.092 2.785 1.544zm49.11-5.464c16.646 2.74 23.27 23.33 11.382 35.379-10.047 10.183-27.146 7.459-33.573-5.35-7.638-15.221 5.352-32.8 22.191-30.029zm-49.11-8.894c10.816 5.156 28.163 4.591 37.163-1.21.587-.378 1.155-.74 1.262-.806.154-.093.195.605.195 3.292v3.41l-1.31.427c-3.438 1.12-7.094 3.392-9.924 6.17-.985.965-1.38 1.09-4.804 1.512-10.975 1.353-23.325-2.165-25.882-7.372-.441-.9-.445-.935-.499-4.297l-.054-3.39 1.068.723c.588.397 1.841 1.09 2.785 1.54zM29.29 4.993c10.725.517 19.535 6 17.302 10.768-4.66 9.946-36.402 9.994-41.351.062-2.678-5.373 9.503-11.602 21.434-10.96.472.025 1.649.083 2.615.13zM8.496 53.063c4.724 2.252 9.66 3.312 16.108 3.458l3.781.085.086.565c.458 3.01 1.085 5.35 1.952 7.282.256.57.465 1.056.465 1.08 0 .321-7.189.33-9.86.012-7.784-.927-14.115-3.875-15.832-7.37-.439-.895-.446-.952-.5-4.142L4.642 50.8l1.069.723c.588.397 1.841 1.091 2.785 1.541M20.902.255C10.46 1.317 2.288 5.773.349 11.461L0 12.484v45.72l.349 1.023C2.98 66.948 17.003 71.993 31.35 70.381l2.377-.267.794.91c12.162 13.95 34.45 11.212 42.707-5.245 3.556-7.087 3.567-16 .028-23.051-4.367-8.703-12.611-13.936-22.378-14.205l-3.081-.085v-7.91c0-6.785-.036-8.03-.25-8.757C49.244 3.928 35.514-1.23 20.903.255"/></g></g></g></svg>