<svg xmlns="http://www.w3.org/2000/svg" width="81" height="80" viewBox="0 0 81 80"><g><g><g><path fill="#c7b64c" d="M40.627 75.137h7.06V80h-7.06zm30.118-2.196v-2.196h4.863V80h-9.255v-4.863h4.392v-2.196zM14.902 60.235h4.863v4.863h-4.863zm55.843-1.882h4.863v6.902h-4.863zm-40.941-8.314H4.863v25.098h24.941zm40.941-4.549h4.863v7.059h-4.863zM0 45.176h34.667V80H0zm70.745-12.549h4.863v7.06h-4.863zM0 32.627h4.863v7.06H0zm70.745-12.705h4.863v6.902h-4.863zM0 19.922h4.863v6.902H0zM53.49 4.706h7.059v4.863H53.49zm-12.863 0h7.06v4.863h-7.06zm-12.705 0h6.902v4.863h-6.902zm-12.863 0h7.059v4.863h-7.06zM0 4.706h9.255v4.863H4.863v4.549H0zm53.49 72.863V80H60.55V75.137H53.49v2.432M69.333 2.43v2.432h2.744l-7.372 7.374-7.372 7.374-.045-1.257-.046-1.256h-4.85v10.98h10.98v-4.862H60.63L68 15.842l7.372-7.374.045 1.256.045 1.256h4.851V0h-10.98v2.432"/></g></g></g></svg>