<svg xmlns="http://www.w3.org/2000/svg" width="80" height="80" viewBox="0 0 80 80"><g><g><g><path fill="#c7b64c" d="M75.313 51.875l-18.477.012c-20.056.014-19.332-.016-21.5.895-10.125 4.254-9.113 18.67 1.539 21.93l1.172.358 18.633.049 18.633.048v-4.542l-14.18-.003c-8.68-.002-14.604-.064-15.274-.16-7.534-1.085-8.2-11.63-.87-13.804.755-.224 2.488-.252 15.586-.252h14.738zm0-9.375l-18.79.014c-15.52.012-19.006.053-20.039.237-8.889 1.582-15.612 8.22-17.353 17.132l-.268 1.367H4.688v13.906h23.43l-.994-1.232c-7.895-9.779-2.584-24.31 9.74-26.647 1.133-.215 3.633-.246 19.872-.246h18.577zm-51.432.646l.835-.646H4.688v13.906h10.286l.422-1.289c1.456-4.447 4.728-9.064 8.485-11.971zM0 37.656h80V80H0zm45.254-27.018l.645-.293 1.294 3.148c2.39 5.814 2.194 8.854-.77 11.923-6.041 6.258-16.756.92-15.169-7.556.182-.971.483-1.783 2.259-6.086l.59-1.428.644.292c.974.443.974.443 3.144-1.732C39.005 7.79 39.955 6.875 40 6.875c.045 0 .995.914 2.11 2.031 2.17 2.175 2.169 2.175 3.144 1.732zm30.059 52.88v2.27l-14.57-.043-14.571-.042-.51-.364c-1.423-1.014-1.222-3.305.345-3.94.177-.07 6.843-.134 14.813-.139l14.493-.01v2.269M37.26 2.659l-2.659 2.66-1.47-.628c-.808-.346-1.519-.629-1.58-.629-.182 0-4.531 10.617-4.833 11.797-2.387 9.346 5.236 18.164 14.783 17.1 8.344-.93 13.863-8.943 11.779-17.1-.302-1.18-4.651-11.796-4.834-11.796-.06 0-.77.282-1.579.627l-1.468.628-2.663-2.659C41.273 1.197 40.04 0 39.997 0c-.042 0-1.273 1.197-2.736 2.66"/></g></g></g></svg>