<svg xmlns="http://www.w3.org/2000/svg" width="80" height="80" viewBox="0 0 80 80"><g><g><g><path fill="#c7b64c" d="M75.313 58.125H35.938v17.188h39.375zM58.85 45.922c.302-.199.727-.295 1.306-.295.58 0 1.005.096 1.306.295 1.035.682 1.404 2.349.741 3.353-1.327 2.013-4.388 1.102-4.388-1.306 0-.962.306-1.566 1.035-2.047zm-12.5 0c.302-.199.727-.295 1.306-.295.58 0 1.005.096 1.306.295 1.035.682 1.404 2.349.741 3.353-1.327 2.013-4.388 1.102-4.388-1.306 0-.962.306-1.566 1.035-2.047zm-23.437-7.97c.301-.198.726-.294 1.306-.294.58 0 1.004.096 1.306.295 2.013 1.327 1.102 4.389-1.306 4.389-2.409 0-3.32-3.062-1.306-4.39zm34.9-4.827H62.5V42.5h-4.687zm-12.5 0H50V42.5h-4.687zM64.063 30H56.25v23.438h7.813zm-12.5 0H43.75v23.438h7.813zM72.03 13.594H64.22V17.5h7.812zm-20.468.204c0-.162-.684-.204-3.282-.204-2.597 0-3.281.042-3.281.204 0 .112.14.97.313 1.905.171.936.312 1.723.312 1.749 0 .026 1.195.048 2.656.048s2.657-.022 2.657-.048c0-.026.14-.813.312-1.749.172-.935.313-1.793.313-1.905zm-2.385-8.715c-.188-.132-.591-.24-.897-.24-1.159 0-1.56.733-1.561 2.852l-.001 1.211h3.125l-.001-1.21c-.001-1.471-.211-2.295-.665-2.613zM31.25 4.688H4.688v70.625H31.25zm23.069 56.859c-.73.48-1.036 1.085-1.036 2.047 0 2.408 3.062 3.32 4.39 1.306.661-1.004.293-2.671-.742-3.353-.301-.199-.726-.295-1.306-.295-.58 0-1.005.096-1.306.295M0 40v40h80V53.438H68.75V25.313H39.063v28.125h-3.125v-31.25H80V17.5H76.719V8.906H59.53V17.5h-1.797c-1.37 0-1.796-.048-1.797-.203 0-.112.317-1.935.704-4.051.386-2.116.703-3.959.703-4.094 0-.205-.23-.246-1.392-.246h-1.391l-.054-2.226C54.402 2.323 52.285.078 48.28.078s-6.12 2.244-6.225 6.602l-.054 2.226H40.61c-1.162 0-1.391.04-1.391.246 0 .135.316 1.978.703 4.094.387 2.116.703 3.94.703 4.051 0 .157-.525.203-2.344.203h-2.343V0H0v40"/></g></g></g></svg>