<svg xmlns="http://www.w3.org/2000/svg" width="80" height="80" viewBox="0 0 80 80"><g><g><g><path fill="#c7b64c" d="M66.241 51.96c8.365 2.247 11.61 12.3 6.116 18.944-5.497 6.648-16.17 5.191-19.745-2.694-4.02-8.869 4.277-18.763 13.629-16.25zM33.892 38.773h9.668v-4.834h-4.834v-7.796h-4.834zm2.42-18.4h2.414v-6.037l1.364.218c1.625.26 4.565 1.216 6.07 1.974 1.17.59 3.948 2.396 3.948 2.567 0 .058-.947 1.054-2.105 2.214l-2.105 2.11 1.716 1.71 1.715 1.71 2.16-2.155 2.159-2.155.755 1.059c1.91 2.675 3.97 7.96 3.97 10.18 0 .118-.946.17-3.041.17h-3.04v4.835h6.116l-.105.74c-.5 3.504-2.47 8.157-4.198 9.911l-.603.612-2.087-2.083-2.088-2.083-3.504 3.504 2.083 2.087 2.083 2.088-.606.606c-1.696 1.696-6.43 3.698-9.916 4.194l-.741.106v-6.117h-4.834v3.04c0 2.096-.053 3.041-.17 3.041-2.222 0-7.505-2.06-10.181-3.969l-1.059-.755 2.156-2.16 2.155-2.159-1.71-1.716-1.711-1.715-2.11 2.105c-1.16 1.158-2.157 2.105-2.215 2.105-.93 0-4.012-6.825-4.54-10.057l-.205-1.247 6.025-.085v-4.82l-3.013-.043-3.012-.042.199-1.17c.5-2.95 1.76-6.054 3.527-8.694l.967-1.443 2.11 2.106c1.16 1.159 2.18 2.106 2.267 2.106.2 0 3.348-3.151 3.348-3.353 0-.083-.948-1.1-2.107-2.261l-2.106-2.11 1.444-.964c2.854-1.905 5.528-2.984 8.772-3.541l1.091-.188.042 3.012.043 3.013h2.413zm4.363-15.19C59.661 7.79 72.252 27.42 66.505 45.455l-.429 1.349h-2.37c-1.304 0-2.37-.02-2.37-.046 0-.025.239-.733.53-1.573 6.098-17.518-6.795-35.609-25.401-35.64C21.099 9.516 9.511 21.037 9.497 36.355 9.481 55.12 27.725 68.118 45.301 61.863c.744-.265 1.375-.48 1.404-.48.028 0 .051 1.058.051 2.351v2.352l-.468.196c-9.427 3.958-23.311.827-31.689-7.146-21.961-20.902-3.993-58.08 26.076-53.952zm23.507 55.611l-2.687 2.687-.939-.929-.938-.929-1.715 1.71-1.714 1.709 2.61 2.614c1.436 1.437 2.682 2.614 2.77 2.614.203 0 8.81-8.605 8.81-8.809 0-.203-3.147-3.354-3.35-3.354-.088 0-1.369 1.21-2.847 2.687M31.553.34C1.045 4.555-10.832 42.056 11.676 63.1c9.53 8.912 24.864 12.151 36.457 7.703.13-.05.51.421 1.035 1.28 8.677 14.2 30.573 8.055 30.633-8.597.023-6.164-2.705-11.18-7.757-14.268a45.23 45.23 0 0 1-1.35-.842c0-.008.212-.68.468-1.493C78.994 22.067 57.458-3.239 31.553.34"/></g></g></g></svg>