<svg xmlns="http://www.w3.org/2000/svg" width="80" height="80" viewBox="0 0 80 80"><g><g><g><path fill="#c7b64c" d="M54.409 58.737c-.45-.492-1.211-1.092-1.745-1.376l-.945-.504v18.456h4.687l-.005-5.743c-.006-7.912-.18-8.853-1.992-10.833zM9.375 66.094c0-5.07-.018-9.218-.039-9.216-.296.021-1.935 1.121-2.509 1.683-1.896 1.857-2.128 3.052-2.135 11.01l-.004 5.742h4.687zm37.656-9.688H14.063v4.688H47.03zm24.376-21.484l3.906 1.954v5.468h-14.22v-9.375h6.41l3.904 1.953zm-29.126.039l.108-1.992H18.861l.108 1.992c.389 7.125 5.086 11.934 11.656 11.934 6.566 0 11.267-4.813 11.656-11.934zM69.533 7.104l-2.382 2.385-2.382 2.386 2.34 2.344 2.34 2.344-2.34 2.343-2.34 2.344 4.678 4.686-1.165 1.172-1.165 1.173h-6.023V4.688h6.008l1.216 1.208zM32.969 4.688H28.28v14.218h-4.687v-6.898l-.586.48c-2.448 2.006-3.82 5.1-4.039 9.114l-.108 1.992h-4.642v4.687H47.03v-4.687H42.39l-.108-1.992c-.22-4.014-1.59-7.108-4.039-9.114l-.586-.48v6.898H32.97zm23.437 18.828V47.03H80v-13.28l-3.774-1.888-3.774-1.888 2.014-2.02 2.014-2.018-2.34-2.343-2.34-2.344 2.34-2.344 2.34-2.343-4.68-4.688 2.312-2.315 2.311-2.315-3.485-3.62L69.453.007 62.93.003 56.406 0v23.516zm-9.375 47.03v4.767H14.063V65.78H47.03v4.766M23.59 3.164l-.004 3.164-1.207.665c-3.959 2.184-8.003 8.015-8.003 11.54v.373H9.531V32.968h4.652l.074 2.696c.22 8.038 5.772 14.609 13.417 15.878.548.092-2.359.147-8.346.158-10.424.021-10.408.02-12.92 1.225-2.143 1.029-4.174 3.06-5.201 5.203C-.022 60.69 0 60.463 0 70.83V80h61.094l-.003-9.18c-.003-11.765-.137-12.378-3.43-15.67-3.277-3.277-3.957-3.426-15.772-3.45-5.645-.01-8.849-.069-8.357-.151 7.706-1.29 13.241-7.82 13.461-15.885l.074-2.695h4.652V18.906h-4.844v-.373c0-3.52-4.05-9.36-8.003-11.54l-1.207-.665-.004-3.164L37.656 0H23.594l-.005 3.164"/></g></g></g></svg>