<svg xmlns="http://www.w3.org/2000/svg" width="71" height="80" viewBox="0 0 71 80"><g><g><g><path fill="#c7b64c" d="M24.29 62.818c.928.466 1.32 1.773.796 2.659-.52.879-.818.944-4.335.944h-3.213l-.548-.481c-1.163-1.022-.844-2.662.621-3.198.841-.308 6.031-.249 6.68.076zm8.084-.441v4.395l-.488-.097a7.887 7.887 0 0 0-1.24-.098h-.75l.145-.507c.365-1.274.053-3.564-.652-4.78l-.302-.522.456-.576c.25-.316.616-.905.811-1.307.326-.67.41-.737.993-.79.35-.033.724-.071.832-.086.152-.022.195.941.195 4.368zm-7.9-7.79c.167.362.608.985.98 1.383l.676.723-.544.477c-.89.781-7.458.987-8.642.271-1.128-.682-1.263-2.112-.284-3.015l.55-.508 3.48.004 3.48.004.304.66zm-.695-5.47l-.962-.088c-3.045-.276-3.001-3.863.047-3.863h.915zm19.406-6.183c2.12.793 2.772 1.415 5.755 5.493l1.954 2.67 7.54.004 7.541.004V67.67H50.982l-1.396 1.848c-3.232 4.28-6.216 5.791-11.468 5.807l-.899.003V55.65l1.29.611c1.612.764 3.228 1.094 5.345 1.094h1.648v-4.845h-1.568c-3.635 0-6.202-1.998-6.639-5.17l-.105-.768h-4.816v2.664c0 3.608-.319 4.167-2.32 4.073-.203-.01-.607-.256-.9-.549l-.53-.53v-7.629l.447-.706c.396-.624.797-.92 1.74-1.283.743-.286 11.498-.007 12.374.32zm-10.81-14.49v9.22l-.743.003c-.71.003-2.47.319-3.048.548-.258.102-.273-.41-.273-9.442v-9.55h4.063v9.22zm5.079-23.315c4.203 1.147 7.55 4.377 8.73 8.429l.239.82H17.84V4.665l9.181.061c8.85.06 9.227.074 10.433.403zM10.43 6.503l2.564 1.815v2.425l-4.971 3.635h-3v-9.69h2.843l2.564 1.815zM31.683 71.93c1.009.924.868 2.315-.307 3.026-.634.384-8.086.451-8.964.08-.985-.415-1.424-1.746-.88-2.667.54-.914.678-.939 5.335-.943l4.262-.004.554.508M.18 9.61v9.612h9.487l1.625-1.177 1.625-1.177.046 1.177.045 1.177h10.458v21.055l-1.416.08c-3.97.227-6.956 3.91-6.252 7.716.091.495.166.954.166 1.02 0 .066-.455.337-1.011.602-3.69 1.762-4.945 6.452-2.653 9.916l.51.771-.38.558c-2.328 3.405-.371 8.853 3.601 10.025.546.161.697.271.62.452-1.115 2.629.779 6.683 3.778 8.087l.927.434 9.846.05c6.95.034 10.188-.006 11.008-.134 4.14-.649 8.3-3.215 10.715-6.61l.626-.879 8.634-.003 8.635-.004V46.26l-8.713-.003-8.713-.004-1.484-2.045c-3.526-4.857-6.225-6.33-11.917-6.502l-2.774-.084V19.223h14.222v-2.125c0-8.468-5.566-15.317-13.714-16.876C36.788.042 34.316 0 24.781 0H12.995V2.337l-1.641-1.169L9.713 0H.18v9.611"/></g></g></g></svg>