<svg xmlns="http://www.w3.org/2000/svg" width="80" height="80" viewBox="0 0 80 80"><g><g><g><path fill="#c7b64c" d="M63.594 50.469h-7.031V70.78h18.75V50.47h-6.875v4.687h-4.844zm-11.719 0H27.813v4.687h24.062zm-40 0H4.688V70.78h18.28V50.47h-6.25v4.687h-4.843zM23.948 32.74c4.527-1.22 8.865 2.329 8.865 7.25v.947h-4.844v-.81c0-2.192-1.969-3.473-3.576-2.328-.863.614-.955 1.06-.955 4.606v3.219H80V80h-4.687v-4.375H4.688V80H0V45.625h18.594l.002-3.477c.003-5.96 1.351-8.33 5.352-9.407zm51.365-18.678h-4.22v4.843h4.22v4.532H61.25V4.688h14.063zm-18.907 0h-4.375v4.843h4.375v4.532H42.344V4.688h14.062zm-18.906 0h-4.383l.086 4.765 4.297.087v4.523H23.594V4.688H37.5zm-18.75 0h-4.531v4.843h4.531v4.532H4.688V4.688H18.75zm33.125 51.25v5.468H27.813V59.843H51.875v5.47M0 14.14v14.14h80V0H0v14.14"/></g></g></g></svg>