<svg xmlns="http://www.w3.org/2000/svg" width="95" height="61" viewBox="0 0 95 61"><g><g transform="rotate(-180 47.5 30.5)"><path fill="#bb9256" d="M57.344 60.785c10.577 0 19.497-3.28 26.76-9.842C91.369 44.38 95 36.116 95 26.147c0-6.94-2.134-12.901-6.403-17.886-4.27-4.984-9.78-7.476-16.535-7.476-5.352 0-9.716 1.782-13.093 5.348-3.377 3.565-5.066 7.912-5.066 13.042 0 4.503 1.72 8.318 5.161 11.446s7.264 4.692 11.47 4.692c1.656 0 3.504-.409 5.542-1.226 2.04-.818 3.505-1.227 4.397-1.227.637 0 1.115.3 1.433.9.319.599.478 1.557.478 2.874 0 5.711-2.548 10.534-7.646 14.468-5.097 3.934-11.022 6.218-17.776 6.853zm-53.903 0c10.576 0 19.497-3.28 26.76-9.842 7.264-6.562 10.896-14.827 10.896-24.796 0-6.94-2.135-12.901-6.404-17.886C30.424 3.277 24.913.785 18.16.785c-5.352 0-9.717 1.782-13.094 5.348C1.688 9.698 0 14.045 0 19.175c0 4.503 1.72 8.318 5.161 11.446 3.44 3.128 7.264 4.692 11.469 4.692 1.656 0 3.504-.409 5.543-1.226 2.039-.818 3.504-1.227 4.396-1.227.638 0 1.115.3 1.434.9.319.599.478 1.557.478 2.874 0 5.711-2.549 10.534-7.646 14.468-5.097 3.934-11.023 6.218-17.777 6.853z"/></g></g></svg>